<mxfile host="app.diagrams.net" agent="Mozilla/5.0 (X11; Ubuntu; Linux x86_64; rv:133.0) Gecko/20100101 Firefox/133.0" version="25.0.3">
  <diagram name="Page-1" id="EmWJjg_4pRdYNwxKdGju">
    <mxGraphModel dx="1762" dy="1195" grid="1" gridSize="10" guides="1" tooltips="1" connect="1" arrows="1" fold="1" page="0" pageScale="1" pageWidth="850" pageHeight="1100" math="0" shadow="0">
      <root>
        <mxCell id="0" />
        <mxCell id="1" parent="0" />
        <mxCell id="wwc7W0PknIxv3wh95yBr-6" value=".2" style="ellipse;whiteSpace=wrap;html=1;aspect=fixed;" vertex="1" parent="1">
          <mxGeometry x="385" y="562" width="80" height="80" as="geometry" />
        </mxCell>
        <mxCell id="wwc7W0PknIxv3wh95yBr-21" value="&lt;div&gt;Hostname: red-dmz-host-1&lt;br&gt;&lt;/div&gt;&lt;div&gt;Ports: 22&lt;br&gt;&lt;/div&gt;&lt;div&gt;OS: linux/Debian&lt;br&gt;&lt;/div&gt;&lt;div&gt;Interface names: lo, eth0&lt;br&gt;&lt;/div&gt;&lt;div&gt;Creds: net1_student18:password18&lt;br&gt;&lt;/div&gt;" style="text;html=1;align=center;verticalAlign=middle;resizable=0;points=[];autosize=1;strokeColor=none;fillColor=none;" vertex="1" parent="1">
          <mxGeometry x="315" y="647" width="210" height="90" as="geometry" />
        </mxCell>
        <mxCell id="wwc7W0PknIxv3wh95yBr-31" value="" style="whiteSpace=wrap;html=1;aspect=fixed;" vertex="1" parent="1">
          <mxGeometry x="85" y="450" width="80" height="80" as="geometry" />
        </mxCell>
        <mxCell id="wwc7W0PknIxv3wh95yBr-32" value="172.16.120.1/29" style="text;html=1;align=center;verticalAlign=middle;resizable=0;points=[];autosize=1;strokeColor=none;fillColor=none;rotation=90;" vertex="1" parent="1">
          <mxGeometry x="78" y="562" width="110" height="30" as="geometry" />
        </mxCell>
        <mxCell id="wwc7W0PknIxv3wh95yBr-37" value="eth0" style="text;html=1;align=center;verticalAlign=middle;resizable=0;points=[];autosize=1;strokeColor=none;fillColor=none;" vertex="1" parent="1">
          <mxGeometry x="100" y="509" width="50" height="30" as="geometry" />
        </mxCell>
        <mxCell id="wwc7W0PknIxv3wh95yBr-38" value="eth1" style="text;html=1;align=center;verticalAlign=middle;resizable=0;points=[];autosize=1;strokeColor=none;fillColor=none;" vertex="1" parent="1">
          <mxGeometry x="102" y="444" width="50" height="30" as="geometry" />
        </mxCell>
        <mxCell id="wwc7W0PknIxv3wh95yBr-39" value="172.16.120.10/29" style="text;html=1;align=center;verticalAlign=middle;resizable=0;points=[];autosize=1;strokeColor=none;fillColor=none;rotation=90;" vertex="1" parent="1">
          <mxGeometry x="75" y="380" width="120" height="30" as="geometry" />
        </mxCell>
        <mxCell id="wwc7W0PknIxv3wh95yBr-40" value="eth2" style="text;html=1;align=center;verticalAlign=middle;resizable=0;points=[];autosize=1;strokeColor=none;fillColor=none;" vertex="1" parent="1">
          <mxGeometry x="126" y="476" width="50" height="30" as="geometry" />
        </mxCell>
        <mxCell id="wwc7W0PknIxv3wh95yBr-41" value="172.16.101.30/27" style="text;html=1;align=center;verticalAlign=middle;resizable=0;points=[];autosize=1;strokeColor=none;fillColor=none;" vertex="1" parent="1">
          <mxGeometry x="153" y="460" width="120" height="30" as="geometry" />
        </mxCell>
        <mxCell id="wwc7W0PknIxv3wh95yBr-43" value="" style="endArrow=none;html=1;rounded=0;" edge="1" parent="1">
          <mxGeometry width="50" height="50" relative="1" as="geometry">
            <mxPoint x="165" y="490" as="sourcePoint" />
            <mxPoint x="580" y="490" as="targetPoint" />
          </mxGeometry>
        </mxCell>
        <mxCell id="wwc7W0PknIxv3wh95yBr-44" value="" style="endArrow=none;html=1;rounded=0;" edge="1" parent="1">
          <mxGeometry width="50" height="50" relative="1" as="geometry">
            <mxPoint x="125" y="450" as="sourcePoint" />
            <mxPoint x="125" y="30" as="targetPoint" />
          </mxGeometry>
        </mxCell>
        <mxCell id="wwc7W0PknIxv3wh95yBr-46" value="" style="endArrow=none;html=1;rounded=0;" edge="1" parent="1">
          <mxGeometry width="50" height="50" relative="1" as="geometry">
            <mxPoint x="124.5" y="700" as="sourcePoint" />
            <mxPoint x="124.5" y="530" as="targetPoint" />
          </mxGeometry>
        </mxCell>
        <mxCell id="wwc7W0PknIxv3wh95yBr-47" value="" style="endArrow=none;html=1;rounded=0;" edge="1" parent="1">
          <mxGeometry width="50" height="50" relative="1" as="geometry">
            <mxPoint x="-15" y="490.5" as="sourcePoint" />
            <mxPoint x="85" y="490.5" as="targetPoint" />
          </mxGeometry>
        </mxCell>
        <mxCell id="wwc7W0PknIxv3wh95yBr-48" value="lo" style="text;html=1;align=center;verticalAlign=middle;resizable=0;points=[];autosize=1;strokeColor=none;fillColor=none;" vertex="1" parent="1">
          <mxGeometry x="85" y="476" width="30" height="30" as="geometry" />
        </mxCell>
        <mxCell id="wwc7W0PknIxv3wh95yBr-49" value="127.0.0.1/8" style="text;html=1;align=center;verticalAlign=middle;resizable=0;points=[];autosize=1;strokeColor=none;fillColor=none;" vertex="1" parent="1">
          <mxGeometry x="5" y="470" width="80" height="30" as="geometry" />
        </mxCell>
        <mxCell id="wwc7W0PknIxv3wh95yBr-50" value="(DMZ)" style="text;html=1;align=center;verticalAlign=middle;resizable=0;points=[];autosize=1;strokeColor=none;fillColor=none;" vertex="1" parent="1">
          <mxGeometry x="166" y="486" width="60" height="30" as="geometry" />
        </mxCell>
        <mxCell id="wwc7W0PknIxv3wh95yBr-51" value="(REDNET)" style="text;html=1;align=center;verticalAlign=middle;resizable=0;points=[];autosize=1;strokeColor=none;fillColor=none;rotation=90;" vertex="1" parent="1">
          <mxGeometry x="70" y="395" width="80" height="30" as="geometry" />
        </mxCell>
        <mxCell id="wwc7W0PknIxv3wh95yBr-52" value="INTERNET" style="text;html=1;align=center;verticalAlign=middle;resizable=0;points=[];autosize=1;strokeColor=none;fillColor=none;rotation=90;" vertex="1" parent="1">
          <mxGeometry x="70" y="550" width="80" height="30" as="geometry" />
        </mxCell>
        <mxCell id="wwc7W0PknIxv3wh95yBr-53" value="" style="endArrow=none;html=1;rounded=0;" edge="1" parent="1">
          <mxGeometry width="50" height="50" relative="1" as="geometry">
            <mxPoint x="580" y="559.5" as="sourcePoint" />
            <mxPoint x="580" y="488.5" as="targetPoint" />
            <Array as="points">
              <mxPoint x="580" y="529.5" />
            </Array>
          </mxGeometry>
        </mxCell>
        <mxCell id="wwc7W0PknIxv3wh95yBr-54" value="" style="endArrow=none;html=1;rounded=0;" edge="1" parent="1">
          <mxGeometry width="50" height="50" relative="1" as="geometry">
            <mxPoint x="390" y="560" as="sourcePoint" />
            <mxPoint x="790" y="560" as="targetPoint" />
          </mxGeometry>
        </mxCell>
        <mxCell id="wwc7W0PknIxv3wh95yBr-55" value="172.16.101.0/27" style="text;html=1;align=center;verticalAlign=middle;resizable=0;points=[];autosize=1;strokeColor=none;fillColor=none;" vertex="1" parent="1">
          <mxGeometry x="465" y="539" width="110" height="30" as="geometry" />
        </mxCell>
        <mxCell id="wwc7W0PknIxv3wh95yBr-56" value="(.1-.30)" style="text;html=1;align=center;verticalAlign=middle;resizable=0;points=[];autosize=1;strokeColor=none;fillColor=none;" vertex="1" parent="1">
          <mxGeometry x="590" y="532" width="60" height="30" as="geometry" />
        </mxCell>
        <mxCell id="wwc7W0PknIxv3wh95yBr-57" value="&lt;div&gt;Hostname: RED-SCR&lt;/div&gt;&lt;div&gt;Ports: 22&lt;/div&gt;&lt;div&gt;OS: vyos&lt;br&gt;&lt;/div&gt;&lt;div&gt;Creds: vyos:password&lt;br&gt;&lt;/div&gt;&lt;div&gt;&lt;br&gt;&lt;/div&gt;" style="text;html=1;align=center;verticalAlign=middle;resizable=0;points=[];autosize=1;strokeColor=none;fillColor=none;" vertex="1" parent="1">
          <mxGeometry x="160" y="360" width="140" height="90" as="geometry" />
        </mxCell>
        <mxCell id="wwc7W0PknIxv3wh95yBr-60" value="172.16.120.8/29" style="text;html=1;align=center;verticalAlign=middle;resizable=0;points=[];autosize=1;strokeColor=none;fillColor=none;rotation=90;" vertex="1" parent="1">
          <mxGeometry x="55" y="200" width="110" height="30" as="geometry" />
        </mxCell>
        <mxCell id="wwc7W0PknIxv3wh95yBr-61" value="(.9-.14)" style="text;html=1;align=center;verticalAlign=middle;resizable=0;points=[];autosize=1;strokeColor=none;fillColor=none;rotation=90;" vertex="1" parent="1">
          <mxGeometry x="82" y="270" width="60" height="30" as="geometry" />
        </mxCell>
        <mxCell id="wwc7W0PknIxv3wh95yBr-63" value="&lt;div&gt;Hostname:RED-IPS&lt;br&gt;&lt;/div&gt;&lt;div&gt;Ports: 22&lt;br&gt;&lt;/div&gt;&lt;div&gt;OS: linux/Debian&lt;br&gt;&lt;/div&gt;&lt;div&gt;Creds: vyos:password&lt;/div&gt;" style="text;html=1;align=center;verticalAlign=middle;resizable=0;points=[];autosize=1;strokeColor=none;fillColor=none;rotation=0;" vertex="1" parent="1">
          <mxGeometry x="166" y="-120" width="140" height="70" as="geometry" />
        </mxCell>
        <mxCell id="wwc7W0PknIxv3wh95yBr-64" value="" style="whiteSpace=wrap;html=1;aspect=fixed;" vertex="1" parent="1">
          <mxGeometry x="85" y="-50" width="80" height="80" as="geometry" />
        </mxCell>
        <mxCell id="wwc7W0PknIxv3wh95yBr-65" value="172.16.120.9/29" style="text;html=1;align=center;verticalAlign=middle;resizable=0;points=[];autosize=1;strokeColor=none;fillColor=none;rotation=90;" vertex="1" parent="1">
          <mxGeometry x="78" y="61" width="110" height="30" as="geometry" />
        </mxCell>
        <mxCell id="wwc7W0PknIxv3wh95yBr-66" value="eth0" style="text;html=1;align=center;verticalAlign=middle;resizable=0;points=[];autosize=1;strokeColor=none;fillColor=none;" vertex="1" parent="1">
          <mxGeometry x="100" y="10" width="50" height="30" as="geometry" />
        </mxCell>
        <mxCell id="wwc7W0PknIxv3wh95yBr-67" value="eth1" style="text;html=1;align=center;verticalAlign=middle;resizable=0;points=[];autosize=1;strokeColor=none;fillColor=none;" vertex="1" parent="1">
          <mxGeometry x="126" y="-25" width="50" height="30" as="geometry" />
        </mxCell>
        <mxCell id="wwc7W0PknIxv3wh95yBr-68" value="" style="endArrow=none;html=1;rounded=0;" edge="1" parent="1">
          <mxGeometry width="50" height="50" relative="1" as="geometry">
            <mxPoint x="165" as="sourcePoint" />
            <mxPoint x="620" as="targetPoint" />
          </mxGeometry>
        </mxCell>
        <mxCell id="wwc7W0PknIxv3wh95yBr-69" value="172.16.120.18/29" style="text;html=1;align=center;verticalAlign=middle;resizable=0;points=[];autosize=1;strokeColor=none;fillColor=none;" vertex="1" parent="1">
          <mxGeometry x="155" y="-23" width="120" height="30" as="geometry" />
        </mxCell>
        <mxCell id="wwc7W0PknIxv3wh95yBr-70" value="INTERNET" style="text;html=1;align=center;verticalAlign=middle;resizable=0;points=[];autosize=1;strokeColor=none;fillColor=none;rotation=90;" vertex="1" parent="1">
          <mxGeometry x="70" y="48" width="80" height="30" as="geometry" />
        </mxCell>
        <mxCell id="wwc7W0PknIxv3wh95yBr-71" value="REDNET" style="text;html=1;align=center;verticalAlign=middle;resizable=0;points=[];autosize=1;strokeColor=none;fillColor=none;" vertex="1" parent="1">
          <mxGeometry x="161" width="70" height="30" as="geometry" />
        </mxCell>
        <mxCell id="wwc7W0PknIxv3wh95yBr-72" value="lo" style="text;html=1;align=center;verticalAlign=middle;resizable=0;points=[];autosize=1;strokeColor=none;fillColor=none;" vertex="1" parent="1">
          <mxGeometry x="78" y="-30" width="30" height="30" as="geometry" />
        </mxCell>
        <mxCell id="wwc7W0PknIxv3wh95yBr-73" value="" style="endArrow=none;html=1;rounded=0;" edge="1" parent="1">
          <mxGeometry width="50" height="50" relative="1" as="geometry">
            <mxPoint x="15" y="-8.5" as="sourcePoint" />
            <mxPoint x="85" y="-8.5" as="targetPoint" />
          </mxGeometry>
        </mxCell>
        <mxCell id="wwc7W0PknIxv3wh95yBr-74" value="127.0.0.8/8" style="text;html=1;align=center;verticalAlign=middle;resizable=0;points=[];autosize=1;strokeColor=none;fillColor=none;" vertex="1" parent="1">
          <mxGeometry x="10" y="-30" width="80" height="30" as="geometry" />
        </mxCell>
        <mxCell id="wwc7W0PknIxv3wh95yBr-75" value="172.16.120.17/29" style="text;html=1;align=center;verticalAlign=middle;resizable=0;points=[];autosize=1;strokeColor=none;fillColor=none;" vertex="1" parent="1">
          <mxGeometry x="507" y="-23" width="120" height="30" as="geometry" />
        </mxCell>
        <mxCell id="wwc7W0PknIxv3wh95yBr-77" value="" style="whiteSpace=wrap;html=1;aspect=fixed;" vertex="1" parent="1">
          <mxGeometry x="620" y="-40" width="80" height="80" as="geometry" />
        </mxCell>
        <mxCell id="wwc7W0PknIxv3wh95yBr-78" value="&lt;div&gt;Hostname:RED-POP&lt;br&gt;&lt;/div&gt;&lt;div&gt;Ports: 22&lt;br&gt;&lt;/div&gt;&lt;div&gt;OS: linux/Debian&lt;br&gt;&lt;/div&gt;&lt;div&gt;Creds: vyos:password&lt;/div&gt;" style="text;html=1;align=center;verticalAlign=middle;resizable=0;points=[];autosize=1;strokeColor=none;fillColor=none;rotation=0;" vertex="1" parent="1">
          <mxGeometry x="690" y="-110" width="140" height="70" as="geometry" />
        </mxCell>
        <mxCell id="wwc7W0PknIxv3wh95yBr-79" value="eth0" style="text;html=1;align=center;verticalAlign=middle;resizable=0;points=[];autosize=1;strokeColor=none;fillColor=none;" vertex="1" parent="1">
          <mxGeometry x="610" y="-20" width="50" height="30" as="geometry" />
        </mxCell>
        <mxCell id="wwc7W0PknIxv3wh95yBr-80" value="INTERNET" style="text;html=1;align=center;verticalAlign=middle;resizable=0;points=[];autosize=1;strokeColor=none;fillColor=none;" vertex="1" parent="1">
          <mxGeometry x="540" width="80" height="30" as="geometry" />
        </mxCell>
        <mxCell id="wwc7W0PknIxv3wh95yBr-81" value="eth1" style="text;html=1;align=center;verticalAlign=middle;resizable=0;points=[];autosize=1;strokeColor=none;fillColor=none;" vertex="1" parent="1">
          <mxGeometry x="663" y="-22" width="50" height="30" as="geometry" />
        </mxCell>
        <mxCell id="wwc7W0PknIxv3wh95yBr-82" value="eth2" style="text;html=1;align=center;verticalAlign=middle;resizable=0;points=[];autosize=1;strokeColor=none;fillColor=none;" vertex="1" parent="1">
          <mxGeometry x="635" y="18" width="50" height="30" as="geometry" />
        </mxCell>
        <mxCell id="wwc7W0PknIxv3wh95yBr-83" value="lo" style="text;html=1;align=center;verticalAlign=middle;resizable=0;points=[];autosize=1;strokeColor=none;fillColor=none;" vertex="1" parent="1">
          <mxGeometry x="645" y="-44" width="30" height="30" as="geometry" />
        </mxCell>
        <mxCell id="wwc7W0PknIxv3wh95yBr-84" value="" style="endArrow=none;html=1;rounded=0;exitX=0.5;exitY=0;exitDx=0;exitDy=0;" edge="1" parent="1" source="wwc7W0PknIxv3wh95yBr-111">
          <mxGeometry width="50" height="50" relative="1" as="geometry">
            <mxPoint x="660" y="200" as="sourcePoint" />
            <mxPoint x="659" y="40" as="targetPoint" />
          </mxGeometry>
        </mxCell>
        <mxCell id="wwc7W0PknIxv3wh95yBr-85" value="" style="endArrow=none;html=1;rounded=0;" edge="1" parent="1">
          <mxGeometry width="50" height="50" relative="1" as="geometry">
            <mxPoint x="660" y="-41" as="sourcePoint" />
            <mxPoint x="660" y="-131" as="targetPoint" />
          </mxGeometry>
        </mxCell>
        <mxCell id="wwc7W0PknIxv3wh95yBr-87" value="127.0.0.1/8" style="text;html=1;align=center;verticalAlign=middle;resizable=0;points=[];autosize=1;strokeColor=none;fillColor=none;rotation=90;" vertex="1" parent="1">
          <mxGeometry x="627" y="-100" width="80" height="30" as="geometry" />
        </mxCell>
        <mxCell id="wwc7W0PknIxv3wh95yBr-88" value="" style="endArrow=none;html=1;rounded=0;" edge="1" parent="1">
          <mxGeometry width="50" height="50" relative="1" as="geometry">
            <mxPoint x="700" y="-2" as="sourcePoint" />
            <mxPoint x="1462" y="-2" as="targetPoint" />
          </mxGeometry>
        </mxCell>
        <mxCell id="wwc7W0PknIxv3wh95yBr-89" value="172.16.182.126/27" style="text;html=1;align=center;verticalAlign=middle;resizable=0;points=[];autosize=1;strokeColor=none;fillColor=none;" vertex="1" parent="1">
          <mxGeometry x="692" y="-23" width="120" height="30" as="geometry" />
        </mxCell>
        <mxCell id="wwc7W0PknIxv3wh95yBr-90" value="172.16.140.6/29" style="text;html=1;align=center;verticalAlign=middle;resizable=0;points=[];autosize=1;strokeColor=none;fillColor=none;rotation=90;" vertex="1" parent="1">
          <mxGeometry x="620" y="80" width="110" height="30" as="geometry" />
        </mxCell>
        <mxCell id="wwc7W0PknIxv3wh95yBr-91" value="REDHOSTS" style="text;html=1;align=center;verticalAlign=middle;resizable=0;points=[];autosize=1;strokeColor=none;fillColor=none;" vertex="1" parent="1">
          <mxGeometry x="692" y="-3" width="90" height="30" as="geometry" />
        </mxCell>
        <mxCell id="wwc7W0PknIxv3wh95yBr-92" value="REDINTDMZ" style="text;html=1;align=center;verticalAlign=middle;resizable=0;points=[];autosize=1;strokeColor=none;fillColor=none;rotation=90;" vertex="1" parent="1">
          <mxGeometry x="601" y="70" width="90" height="30" as="geometry" />
        </mxCell>
        <mxCell id="wwc7W0PknIxv3wh95yBr-93" value="172.16.182.96/27" style="text;html=1;align=center;verticalAlign=middle;resizable=0;points=[];autosize=1;strokeColor=none;fillColor=none;" vertex="1" parent="1">
          <mxGeometry x="1330" y="65" width="120" height="30" as="geometry" />
        </mxCell>
        <mxCell id="wwc7W0PknIxv3wh95yBr-94" value="" style="endArrow=none;html=1;rounded=0;" edge="1" parent="1">
          <mxGeometry width="50" height="50" relative="1" as="geometry">
            <mxPoint x="1460" y="87" as="sourcePoint" />
            <mxPoint x="1460" y="-3" as="targetPoint" />
          </mxGeometry>
        </mxCell>
        <mxCell id="wwc7W0PknIxv3wh95yBr-95" value="" style="endArrow=none;html=1;rounded=0;" edge="1" parent="1">
          <mxGeometry width="50" height="50" relative="1" as="geometry">
            <mxPoint x="1000" y="88" as="sourcePoint" />
            <mxPoint x="1654" y="88" as="targetPoint" />
          </mxGeometry>
        </mxCell>
        <mxCell id="wwc7W0PknIxv3wh95yBr-96" value="(.97-.126)" style="text;html=1;align=center;verticalAlign=middle;resizable=0;points=[];autosize=1;strokeColor=none;fillColor=none;" vertex="1" parent="1">
          <mxGeometry x="1460" y="61" width="80" height="30" as="geometry" />
        </mxCell>
        <mxCell id="wwc7W0PknIxv3wh95yBr-99" value="" style="edgeStyle=orthogonalEdgeStyle;rounded=0;orthogonalLoop=1;jettySize=auto;html=1;" edge="1" parent="1" source="wwc7W0PknIxv3wh95yBr-97" target="wwc7W0PknIxv3wh95yBr-98">
          <mxGeometry relative="1" as="geometry" />
        </mxCell>
        <mxCell id="wwc7W0PknIxv3wh95yBr-97" value="172.16.120.16/29" style="text;html=1;align=center;verticalAlign=middle;resizable=0;points=[];autosize=1;strokeColor=none;fillColor=none;" vertex="1" parent="1">
          <mxGeometry x="340" y="-33" width="120" height="30" as="geometry" />
        </mxCell>
        <mxCell id="wwc7W0PknIxv3wh95yBr-98" value="(.17-.22)" style="text;html=1;align=center;verticalAlign=middle;resizable=0;points=[];autosize=1;strokeColor=none;fillColor=none;" vertex="1" parent="1">
          <mxGeometry x="365" y="5" width="70" height="30" as="geometry" />
        </mxCell>
        <mxCell id="wwc7W0PknIxv3wh95yBr-100" value=".106" style="ellipse;whiteSpace=wrap;html=1;aspect=fixed;" vertex="1" parent="1">
          <mxGeometry x="980" y="89" width="80" height="80" as="geometry" />
        </mxCell>
        <mxCell id="wwc7W0PknIxv3wh95yBr-101" value=".110" style="ellipse;whiteSpace=wrap;html=1;aspect=fixed;" vertex="1" parent="1">
          <mxGeometry x="1200" y="91" width="80" height="80" as="geometry" />
        </mxCell>
        <mxCell id="wwc7W0PknIxv3wh95yBr-102" value=".114" style="ellipse;whiteSpace=wrap;html=1;aspect=fixed;" vertex="1" parent="1">
          <mxGeometry x="1390" y="91" width="80" height="80" as="geometry" />
        </mxCell>
        <mxCell id="wwc7W0PknIxv3wh95yBr-103" value=".118" style="ellipse;whiteSpace=wrap;html=1;aspect=fixed;" vertex="1" parent="1">
          <mxGeometry x="1600" y="91" width="80" height="80" as="geometry" />
        </mxCell>
        <mxCell id="wwc7W0PknIxv3wh95yBr-104" value="&lt;div&gt;Hostname: red-host-1&lt;br&gt;&lt;/div&gt;&lt;div&gt;Ports: 22&lt;br&gt;&lt;/div&gt;&lt;div&gt;OS: linux&lt;br&gt;&lt;/div&gt;&lt;div&gt;Creds: net1_student16:password16&lt;/div&gt;&lt;div&gt;Interfaces: eth0&lt;br&gt;&lt;/div&gt;" style="text;html=1;align=center;verticalAlign=middle;resizable=0;points=[];autosize=1;strokeColor=none;fillColor=none;rotation=0;" vertex="1" parent="1">
          <mxGeometry x="915" y="169" width="210" height="90" as="geometry" />
        </mxCell>
        <mxCell id="wwc7W0PknIxv3wh95yBr-108" value="&lt;div&gt;Hostname: red-host-2&lt;/div&gt;&lt;div&gt;Ports: 22, 80&lt;br&gt;&lt;/div&gt;&lt;div&gt;OS: Linux&lt;br&gt;&lt;/div&gt;&lt;div&gt;Creds:&lt;br&gt;&lt;/div&gt;&lt;div&gt;Interfaces: &lt;br&gt;&lt;/div&gt;" style="text;html=1;align=center;verticalAlign=middle;resizable=0;points=[];autosize=1;strokeColor=none;fillColor=none;rotation=0;" vertex="1" parent="1">
          <mxGeometry x="1170" y="171" width="140" height="90" as="geometry" />
        </mxCell>
        <mxCell id="wwc7W0PknIxv3wh95yBr-109" value="&lt;div&gt;Hostname: red-host-3&lt;br&gt;&lt;/div&gt;&lt;div&gt;Ports: 22 &lt;br&gt;&lt;/div&gt;&lt;div&gt;OS: Linux&lt;br&gt;&lt;/div&gt;&lt;div&gt;Creds: net1_student16:password16&lt;/div&gt;&lt;div&gt;Interfaces: eth0&lt;br&gt;&lt;/div&gt;" style="text;html=1;align=center;verticalAlign=middle;resizable=0;points=[];autosize=1;strokeColor=none;fillColor=none;rotation=0;" vertex="1" parent="1">
          <mxGeometry x="1325" y="169" width="210" height="90" as="geometry" />
        </mxCell>
        <mxCell id="wwc7W0PknIxv3wh95yBr-110" value="&lt;div&gt;Hostname: red-host-4&lt;br&gt;&lt;/div&gt;&lt;div&gt;Ports: 22&lt;br&gt;&lt;/div&gt;&lt;div&gt;OS: Linux&lt;br&gt;&lt;/div&gt;&lt;div&gt;Creds:&amp;nbsp;net1_student16:password16 &lt;/div&gt;&lt;div&gt;interfaces: eth0&lt;br&gt;&lt;/div&gt;" style="text;html=1;align=center;verticalAlign=middle;resizable=0;points=[];autosize=1;strokeColor=none;fillColor=none;rotation=0;" vertex="1" parent="1">
          <mxGeometry x="1535" y="169" width="210" height="90" as="geometry" />
        </mxCell>
        <mxCell id="wwc7W0PknIxv3wh95yBr-111" value="" style="whiteSpace=wrap;html=1;aspect=fixed;" vertex="1" parent="1">
          <mxGeometry x="620" y="259" width="80" height="80" as="geometry" />
        </mxCell>
        <mxCell id="wwc7W0PknIxv3wh95yBr-112" value="172.16.140.5/29" style="text;html=1;align=center;verticalAlign=middle;resizable=0;points=[];autosize=1;strokeColor=none;fillColor=none;rotation=90;" vertex="1" parent="1">
          <mxGeometry x="620" y="190" width="110" height="30" as="geometry" />
        </mxCell>
        <mxCell id="wwc7W0PknIxv3wh95yBr-113" value="&lt;div&gt;172.16.140.0/29&lt;/div&gt;&lt;div&gt;(.1-.6)&lt;br&gt;&lt;/div&gt;" style="text;html=1;align=center;verticalAlign=middle;resizable=0;points=[];autosize=1;strokeColor=none;fillColor=none;rotation=90;" vertex="1" parent="1">
          <mxGeometry x="582" y="160" width="110" height="40" as="geometry" />
        </mxCell>
        <mxCell id="wwc7W0PknIxv3wh95yBr-114" value="eth0" style="text;html=1;align=center;verticalAlign=middle;resizable=0;points=[];autosize=1;strokeColor=none;fillColor=none;" vertex="1" parent="1">
          <mxGeometry x="634" y="254" width="50" height="30" as="geometry" />
        </mxCell>
        <mxCell id="wwc7W0PknIxv3wh95yBr-115" value="eth1" style="text;html=1;align=center;verticalAlign=middle;resizable=0;points=[];autosize=1;strokeColor=none;fillColor=none;" vertex="1" parent="1">
          <mxGeometry x="663" y="284" width="50" height="30" as="geometry" />
        </mxCell>
        <mxCell id="wwc7W0PknIxv3wh95yBr-116" value="lo" style="text;html=1;align=center;verticalAlign=middle;resizable=0;points=[];autosize=1;strokeColor=none;fillColor=none;" vertex="1" parent="1">
          <mxGeometry x="615" y="284" width="30" height="30" as="geometry" />
        </mxCell>
        <mxCell id="wwc7W0PknIxv3wh95yBr-117" value="" style="endArrow=none;html=1;rounded=0;" edge="1" parent="1">
          <mxGeometry width="50" height="50" relative="1" as="geometry">
            <mxPoint x="700" y="300" as="sourcePoint" />
            <mxPoint x="1240" y="300" as="targetPoint" />
          </mxGeometry>
        </mxCell>
        <mxCell id="wwc7W0PknIxv3wh95yBr-118" value="172.16.140.62/27" style="text;html=1;align=center;verticalAlign=middle;resizable=0;points=[];autosize=1;strokeColor=none;fillColor=none;" vertex="1" parent="1">
          <mxGeometry x="692" y="280" width="120" height="30" as="geometry" />
        </mxCell>
        <mxCell id="wwc7W0PknIxv3wh95yBr-120" value="" style="endArrow=none;html=1;rounded=0;" edge="1" parent="1">
          <mxGeometry width="50" height="50" relative="1" as="geometry">
            <mxPoint x="1239.5" y="400" as="sourcePoint" />
            <mxPoint x="1239.5" y="300" as="targetPoint" />
          </mxGeometry>
        </mxCell>
        <mxCell id="wwc7W0PknIxv3wh95yBr-121" value="" style="endArrow=none;html=1;rounded=0;" edge="1" parent="1">
          <mxGeometry width="50" height="50" relative="1" as="geometry">
            <mxPoint x="1070" y="395" as="sourcePoint" />
            <mxPoint x="1330" y="395" as="targetPoint" />
          </mxGeometry>
        </mxCell>
        <mxCell id="wwc7W0PknIxv3wh95yBr-122" value="172.16.140.32/27" style="text;html=1;align=center;verticalAlign=middle;resizable=0;points=[];autosize=1;strokeColor=none;fillColor=none;" vertex="1" parent="1">
          <mxGeometry x="1098" y="365" width="120" height="30" as="geometry" />
        </mxCell>
        <mxCell id="wwc7W0PknIxv3wh95yBr-123" value="(.33-.62)" style="text;html=1;align=center;verticalAlign=middle;resizable=0;points=[];autosize=1;strokeColor=none;fillColor=none;" vertex="1" parent="1">
          <mxGeometry x="1241" y="366" width="70" height="30" as="geometry" />
        </mxCell>
        <mxCell id="wwc7W0PknIxv3wh95yBr-124" value=".33" style="ellipse;whiteSpace=wrap;html=1;aspect=fixed;" vertex="1" parent="1">
          <mxGeometry x="1045" y="394" width="80" height="80" as="geometry" />
        </mxCell>
        <mxCell id="wwc7W0PknIxv3wh95yBr-125" value=".35" style="ellipse;whiteSpace=wrap;html=1;aspect=fixed;" vertex="1" parent="1">
          <mxGeometry x="1270" y="394" width="80" height="80" as="geometry" />
        </mxCell>
        <mxCell id="wwc7W0PknIxv3wh95yBr-126" value="&lt;div&gt;Hostname:&lt;br&gt;&lt;/div&gt;&lt;div&gt;Ports:&lt;br&gt;&lt;/div&gt;&lt;div&gt;OS: linux&lt;br&gt;&lt;/div&gt;&lt;div&gt;Creds: net1_student16:password16&lt;/div&gt;&lt;div&gt;Interfaces:&lt;br&gt;&lt;/div&gt;" style="text;html=1;align=center;verticalAlign=middle;resizable=0;points=[];autosize=1;strokeColor=none;fillColor=none;rotation=0;" vertex="1" parent="1">
          <mxGeometry x="970" y="479" width="210" height="90" as="geometry" />
        </mxCell>
        <mxCell id="wwc7W0PknIxv3wh95yBr-127" value="&lt;div&gt;Hostname:&lt;br&gt;&lt;/div&gt;&lt;div&gt;Ports: &lt;br&gt;&lt;/div&gt;&lt;div&gt;OS: linux&lt;br&gt;&lt;/div&gt;&lt;div&gt;Creds: net1_student16:password16&lt;/div&gt;&lt;div&gt;Interfaces: &lt;br&gt;&lt;/div&gt;" style="text;html=1;align=center;verticalAlign=middle;resizable=0;points=[];autosize=1;strokeColor=none;fillColor=none;rotation=0;" vertex="1" parent="1">
          <mxGeometry x="1205" y="490" width="210" height="90" as="geometry" />
        </mxCell>
      </root>
    </mxGraphModel>
  </diagram>
</mxfile>
